<svg width="31" height="26" viewBox="0 0 31 26" fill="none" xmlns="http://www.w3.org/2000/svg">
<g clip-path="url(#clip0_347_693)">
<rect width="31" height="26" fill="white"/>
<path d="M7.6101 21.115C6.35277 21.115 5.24877 20.8543 4.2981 20.333C3.34743 19.7963 2.60377 19.068 2.0671 18.148C1.53043 17.2127 1.2621 16.147 1.2621 14.951C1.2621 13.755 1.5151 12.697 2.0211 11.777C2.54244 10.857 3.24777 10.1363 4.1371 9.615C5.04177 9.07833 6.05377 8.81 7.1731 8.81C8.30777 8.81 9.3121 9.07067 10.1861 9.592C11.0754 10.098 11.7731 10.8187 12.2791 11.754C12.7851 12.674 13.0381 13.7397 13.0381 14.951C13.0381 15.0277 13.0304 15.112 13.0151 15.204C13.0151 15.2807 13.0151 15.365 13.0151 15.457H2.5041V14.238H12.1411L11.4971 14.721C11.4971 13.847 11.3054 13.0727 10.9221 12.398C10.5541 11.708 10.0481 11.1713 9.4041 10.788C8.7601 10.4047 8.01644 10.213 7.1731 10.213C6.3451 10.213 5.60144 10.4047 4.9421 10.788C4.28277 11.1713 3.7691 11.708 3.4011 12.398C3.0331 13.088 2.8491 13.8777 2.8491 14.767V15.02C2.8491 15.94 3.04843 16.7527 3.4471 17.458C3.8611 18.148 4.42844 18.6923 5.1491 19.091C5.8851 19.4743 6.72077 19.666 7.6561 19.666C8.3921 19.666 9.07444 19.5357 9.7031 19.275C10.3471 19.0143 10.8991 18.6157 11.3591 18.079L12.2791 19.137C11.7424 19.781 11.0678 20.2717 10.2551 20.609C9.45777 20.9463 8.5761 21.115 7.6101 21.115Z" fill="#28262C"/>
<path d="M23.699 21.23C22.4723 21.23 21.33 21.0307 20.272 20.632C19.2293 20.218 18.317 19.643 17.535 18.907C16.7683 18.1557 16.1703 17.274 15.741 16.262C15.3116 15.25 15.097 14.146 15.097 12.95C15.097 11.754 15.3116 10.65 15.741 9.638C16.1703 8.626 16.776 7.752 17.558 7.016C18.34 6.26467 19.2523 5.68967 20.295 5.291C21.3376 4.877 22.48 4.67 23.722 4.67C25.0406 4.67 26.2443 4.9 27.333 5.36C28.4216 5.80467 29.3416 6.47167 30.093 7.361L28.161 9.178C27.5783 8.54933 26.9266 8.08167 26.206 7.775C25.4853 7.453 24.7033 7.292 23.86 7.292C23.0166 7.292 22.2423 7.43 21.537 7.706C20.847 7.982 20.2413 8.373 19.72 8.879C19.214 9.385 18.8153 9.983 18.524 10.673C18.248 11.363 18.11 12.122 18.11 12.95C18.11 13.778 18.248 14.537 18.524 15.227C18.8153 15.917 19.214 16.515 19.72 17.021C20.2413 17.527 20.847 17.918 21.537 18.194C22.2423 18.47 23.0166 18.608 23.86 18.608C24.7033 18.608 25.4853 18.4547 26.206 18.148C26.9266 17.826 27.5783 17.343 28.161 16.699L30.093 18.539C29.3416 19.413 28.4216 20.08 27.333 20.54C26.2443 21 25.033 21.23 23.699 21.23Z" fill="#26C485"/>
</g>
<defs>
<clipPath id="clip0_347_693">
<rect width="31" height="26" fill="white"/>
</clipPath>
</defs>
</svg>
