<svg width="117" height="26" viewBox="0 0 117 26" fill="none" xmlns="http://www.w3.org/2000/svg">
<g clip-path="url(#clip0_347_692)">
<rect width="117" height="26" fill="white"/>
<path d="M7.68725 21.115C6.42992 21.115 5.32592 20.8543 4.37525 20.333C3.42458 19.7963 2.68092 19.068 2.14425 18.148C1.60758 17.2127 1.33925 16.147 1.33925 14.951C1.33925 13.755 1.59225 12.697 2.09825 11.777C2.61958 10.857 3.32492 10.1363 4.21425 9.615C5.11892 9.07833 6.13092 8.81 7.25025 8.81C8.38492 8.81 9.38925 9.07067 10.2633 9.592C11.1526 10.098 11.8503 10.8187 12.3563 11.754C12.8623 12.674 13.1153 13.7397 13.1153 14.951C13.1153 15.0277 13.1076 15.112 13.0923 15.204C13.0923 15.2807 13.0923 15.365 13.0923 15.457H2.58125V14.238H12.2183L11.5743 14.721C11.5743 13.847 11.3826 13.0727 10.9993 12.398C10.6313 11.708 10.1253 11.1713 9.48125 10.788C8.83725 10.4047 8.09358 10.213 7.25025 10.213C6.42225 10.213 5.67858 10.4047 5.01925 10.788C4.35992 11.1713 3.84625 11.708 3.47825 12.398C3.11025 13.088 2.92625 13.8777 2.92625 14.767V15.02C2.92625 15.94 3.12558 16.7527 3.52425 17.458C3.93825 18.148 4.50558 18.6923 5.22625 19.091C5.96225 19.4743 6.79792 19.666 7.73325 19.666C8.46925 19.666 9.15158 19.5357 9.78025 19.275C10.4243 19.0143 10.9763 18.6157 11.4363 18.079L12.3563 19.137C11.8196 19.781 11.1449 20.2717 10.3323 20.609C9.53492 20.9463 8.65325 21.115 7.68725 21.115ZM23.6917 21V18.332L23.6227 17.895V13.433C23.6227 12.4057 23.3313 11.616 22.7487 11.064C22.1813 10.512 21.3303 10.236 20.1957 10.236C19.4137 10.236 18.67 10.3663 17.9647 10.627C17.2593 10.8877 16.6613 11.2327 16.1707 11.662L15.4347 10.443C16.048 9.92167 16.784 9.523 17.6427 9.247C18.5013 8.95567 19.406 8.81 20.3567 8.81C21.9207 8.81 23.1243 9.201 23.9677 9.983C24.8263 10.7497 25.2557 11.9227 25.2557 13.502V21H23.6917ZM19.5287 21.115C18.624 21.115 17.8343 20.9693 17.1597 20.678C16.5003 20.3713 15.9943 19.9573 15.6417 19.436C15.289 18.8993 15.1127 18.286 15.1127 17.596C15.1127 16.9673 15.2583 16.4 15.5497 15.894C15.8563 15.3727 16.347 14.9587 17.0217 14.652C17.7117 14.33 18.6317 14.169 19.7817 14.169H23.9447V15.388H19.8277C18.6623 15.388 17.8497 15.595 17.3897 16.009C16.945 16.423 16.7227 16.9367 16.7227 17.55C16.7227 18.24 16.991 18.792 17.5277 19.206C18.0643 19.62 18.8157 19.827 19.7817 19.827C20.7017 19.827 21.4913 19.62 22.1507 19.206C22.8253 18.7767 23.316 18.1633 23.6227 17.366L23.9907 18.493C23.684 19.2903 23.1473 19.9267 22.3807 20.402C21.6293 20.8773 20.6787 21.115 19.5287 21.115ZM32.9341 21.115C31.9374 21.115 30.9944 20.977 30.1051 20.701C29.2157 20.4097 28.5181 20.0493 28.0121 19.62L28.7481 18.332C29.2387 18.7 29.8674 19.022 30.6341 19.298C31.4007 19.5587 32.2057 19.689 33.0491 19.689C34.1991 19.689 35.0271 19.5127 35.5331 19.16C36.0391 18.792 36.2921 18.309 36.2921 17.711C36.2921 17.2663 36.1464 16.9213 35.8551 16.676C35.5791 16.4153 35.2111 16.2237 34.7511 16.101C34.2911 15.963 33.7774 15.848 33.2101 15.756C32.6427 15.664 32.0754 15.5567 31.5081 15.434C30.9561 15.3113 30.4501 15.135 29.9901 14.905C29.5301 14.6597 29.1544 14.33 28.8631 13.916C28.5871 13.502 28.4491 12.95 28.4491 12.26C28.4491 11.6007 28.6331 11.0103 29.0011 10.489C29.3691 9.96767 29.9057 9.56133 30.6111 9.27C31.3317 8.96333 32.2057 8.81 33.2331 8.81C34.0151 8.81 34.7971 8.91733 35.5791 9.132C36.3611 9.33133 37.0051 9.59967 37.5111 9.937L36.7981 11.248C36.2614 10.88 35.6864 10.6193 35.0731 10.466C34.4597 10.2973 33.8464 10.213 33.2331 10.213C32.1444 10.213 31.3394 10.4047 30.8181 10.788C30.3121 11.156 30.0591 11.6313 30.0591 12.214C30.0591 12.674 30.1971 13.0343 30.4731 13.295C30.7644 13.5557 31.1401 13.7627 31.6001 13.916C32.0754 14.054 32.5891 14.169 33.1411 14.261C33.7084 14.353 34.2681 14.468 34.8201 14.606C35.3874 14.7287 35.9011 14.905 36.3611 15.135C36.8364 15.3497 37.2121 15.664 37.4881 16.078C37.7794 16.4767 37.9251 17.0057 37.9251 17.665C37.9251 18.3703 37.7257 18.9837 37.3271 19.505C36.9437 20.011 36.3764 20.4097 35.6251 20.701C34.8891 20.977 33.9921 21.115 32.9341 21.115ZM40.7889 25.577C40.2216 25.577 39.6773 25.485 39.1559 25.301C38.6499 25.117 38.2129 24.841 37.8449 24.473L38.6039 23.254C38.9106 23.5453 39.2403 23.7677 39.5929 23.921C39.9609 24.0897 40.3673 24.174 40.8119 24.174C41.3486 24.174 41.8086 24.0207 42.1919 23.714C42.5906 23.4227 42.9663 22.9013 43.3189 22.15L44.1009 20.379L44.2849 20.126L49.2529 8.925H50.8629L44.8139 22.449C44.4766 23.231 44.1009 23.852 43.6869 24.312C43.2883 24.772 42.8513 25.094 42.3759 25.278C41.9006 25.4773 41.3716 25.577 40.7889 25.577ZM44.0089 21.345L38.4429 8.925H40.1449L45.0669 20.011L44.0089 21.345Z" fill="#28262C"/>
<path d="M60.4997 21.23C59.2731 21.23 58.1307 21.0307 57.0727 20.632C56.0301 20.218 55.1177 19.643 54.3357 18.907C53.5691 18.1557 52.9711 17.274 52.5417 16.262C52.1124 15.25 51.8977 14.146 51.8977 12.95C51.8977 11.754 52.1124 10.65 52.5417 9.638C52.9711 8.626 53.5767 7.752 54.3587 7.016C55.1407 6.26467 56.0531 5.68967 57.0957 5.291C58.1384 4.877 59.2807 4.67 60.5227 4.67C61.8414 4.67 63.0451 4.9 64.1337 5.36C65.2224 5.80467 66.1424 6.47167 66.8937 7.361L64.9617 9.178C64.3791 8.54933 63.7274 8.08167 63.0067 7.775C62.2861 7.453 61.5041 7.292 60.6607 7.292C59.8174 7.292 59.0431 7.43 58.3377 7.706C57.6477 7.982 57.0421 8.373 56.5207 8.879C56.0147 9.385 55.6161 9.983 55.3247 10.673C55.0487 11.363 54.9107 12.122 54.9107 12.95C54.9107 13.778 55.0487 14.537 55.3247 15.227C55.6161 15.917 56.0147 16.515 56.5207 17.021C57.0421 17.527 57.6477 17.918 58.3377 18.194C59.0431 18.47 59.8174 18.608 60.6607 18.608C61.5041 18.608 62.2861 18.4547 63.0067 18.148C63.7274 17.826 64.3791 17.343 64.9617 16.699L66.8937 18.539C66.1424 19.413 65.2224 20.08 64.1337 20.54C63.0451 21 61.8337 21.23 60.4997 21.23ZM67.1448 21L74.3898 4.9H77.3338L84.6018 21H81.4738L75.2408 6.487H76.4368L70.2268 21H67.1448ZM70.4798 17.274L71.2848 14.928H79.9788L80.7838 17.274H70.4798ZM86.6493 21V4.9H93.2733C94.6993 4.9 95.9183 5.13 96.9303 5.59C97.9576 6.05 98.7473 6.70933 99.2993 7.568C99.8513 8.42667 100.127 9.44633 100.127 10.627C100.127 11.8077 99.8513 12.8273 99.2993 13.686C98.7473 14.5293 97.9576 15.181 96.9303 15.641C95.9183 16.0857 94.6993 16.308 93.2733 16.308H88.3053L89.6393 14.951V21H86.6493ZM97.1833 21L93.1123 15.158H96.3093L100.403 21H97.1833ZM89.6393 15.273L88.3053 13.847H93.1353C94.454 13.847 95.443 13.5633 96.1023 12.996C96.777 12.4287 97.1143 11.639 97.1143 10.627C97.1143 9.59967 96.777 8.81 96.1023 8.258C95.443 7.706 94.454 7.43 93.1353 7.43H88.3053L89.6393 5.958V15.273ZM106.233 11.593H114.237V14.054H106.233V11.593ZM106.463 18.493H115.548V21H103.473V4.9H115.226V7.407H106.463V18.493Z" fill="#26C485"/>
</g>
<defs>
<clipPath id="clip0_347_692">
<rect width="117" height="26" fill="white"/>
</clipPath>
</defs>
</svg>
